<?xml version="1.0" encoding="UTF-8" standalone="no"?>
<!-- Created with Inkscape (http://www.inkscape.org/) -->

<svg
   xmlns:dc="http://purl.org/dc/elements/1.1/"
   xmlns:cc="http://creativecommons.org/ns#"
   xmlns:rdf="http://www.w3.org/1999/02/22-rdf-syntax-ns#"
   xmlns:svg="http://www.w3.org/2000/svg"
   xmlns="http://www.w3.org/2000/svg"
   xmlns:sodipodi="http://sodipodi.sourceforge.net/DTD/sodipodi-0.dtd"
   xmlns:inkscape="http://www.inkscape.org/namespaces/inkscape"
   version="1.1"
   id="svg3783"
   width="1142.3101"
   height="250.505"
   viewBox="0 0 1142.3101 250.505"
   sodipodi:docname="logo.svg"
   inkscape:version="0.92.3 (2405546, 2018-03-11)">
  <metadata
     id="metadata3789">
    <rdf:RDF>
      <cc:Work
         rdf:about="">
        <dc:format>image/svg+xml</dc:format>
        <dc:type
           rdf:resource="http://purl.org/dc/dcmitype/StillImage" />
        <dc:title></dc:title>
      </cc:Work>
    </rdf:RDF>
  </metadata>
  <defs
     id="defs3787" />
  <sodipodi:namedview
     pagecolor="#ffffff"
     bordercolor="#666666"
     borderopacity="1"
     objecttolerance="10"
     gridtolerance="10"
     guidetolerance="10"
     inkscape:pageopacity="0"
     inkscape:pageshadow="2"
     inkscape:window-width="1299"
     inkscape:window-height="713"
     id="namedview3785"
     showgrid="false"
     inkscape:zoom="0.25"
     inkscape:cx="1112.3219"
     inkscape:cy="1054.3295"
     inkscape:window-x="67"
     inkscape:window-y="27"
     inkscape:window-maximized="1"
     inkscape:current-layer="svg3783"
     inkscape:pagecheckerboard="false" />
  <g
     id="g4667"
     transform="translate(-177.485,-601.018)"
     inkscape:export-xdpi="96"
     inkscape:export-ydpi="96">
    <g
       id="g4661">
      <g
         id="g4656">
        <g
           transform="translate(1.8201544e-4,-0.09974048)"
           id="g4652">
          <path
             style="fill:#F56E64;fill-opacity:1"
             d="M 288.1737,850.89551 C 234.06004,844.56732 191.09204,805.10792 179.39582,751 c -2.30403,-10.65865 -2.58655,-37.01296 -0.50922,-47.5 5.01729,-25.32886 17.04183,-47.69092 35.50964,-66.03736 17.73235,-17.61582 36.491,-27.83694 62.60376,-34.11122 7.15845,-1.72001 28.3572,-1.81724 465.5,-2.13504 343.9596,-0.25005 460.2087,-0.0435 466.8704,0.82967 65.8904,8.63617 113.4456,64.67591 110.2785,129.95395 -1.9129,39.42934 -19.8336,72.35221 -52.6489,96.7235 -11.6891,8.68124 -27.3512,15.68083 -45,20.11096 l -10.5,2.63567 -458,0.14107 c -251.9,0.0776 -461.29683,-0.24447 -465.3263,-0.71569 z M 1213,827.57654 c 52.2481,-9.43031 89.535,-58.55876 84.0684,-110.76686 -2.7186,-25.96464 -12.7793,-46.70703 -31.1952,-64.31608 -17.7218,-16.94541 -37.0619,-25.92794 -61.3732,-28.50494 -12.25,-1.2985 -900.82679,-1.29253 -913,0.006 -35.06449,3.74075 -65.7871,24.8512 -81.50586,56.00521 -16.69307,33.08505 -14.26206,73.08122 6.29085,103.5 6.65085,9.84342 10.74427,14.33299 20.14219,22.09155 13.60632,11.23286 29.75446,18.75992 47.07282,21.94183 10.65578,1.9578 918.6585,1.99996 929.5,0.0432 z M 437.26455,789.45841 c -16.23091,-4.37118 -29.07101,-16.87714 -29.5859,-28.81596 L 407.5,756.5 l 8.09962,-0.28801 8.09963,-0.28802 1.7614,4.61217 C 433.31431,781.10066 476,776.32748 476,754.88476 c 0,-9.65576 -6.50492,-13.47835 -27,-15.86641 -21.98694,-2.5619 -32.02914,-7.45052 -37.79436,-18.39861 -2.37956,-4.51878 -2.69603,-6.23486 -2.69603,-14.61974 0,-8.34995 0.32149,-10.11015 2.6557,-14.54015 3.00481,-5.70271 9.75575,-12.3586 15.51537,-15.29695 14.15331,-7.22048 34.10583,-7.05472 46.95355,0.39008 5.98068,3.46559 12.94182,11.65453 14.88801,17.51397 2.43116,7.31954 1.89149,7.93305 -6.97831,7.93305 h -7.51884 l -2.51871,-3.98989 c -6.25573,-9.90972 -20.94679,-13.38835 -34.56275,-8.18396 -9.86464,3.77053 -14.73923,15.07623 -9.91322,22.99188 2.83916,4.65681 8.33294,6.74928 24.00635,9.14354 22.18274,3.38863 32.55841,8.04079 38.20167,17.12854 5.54621,8.93146 5.68959,22.23789 0.33803,31.36964 -9.12631,15.57287 -32.93085,24.21821 -52.31191,18.99866 z M 612.69349,789.75 c -1.53937,-1.13941 -1.7111,-5.62934 -1.94113,-50.75 L 610.5,689.5 594.07159,689.22437 c -10.04176,-0.16847 -16.94219,-0.70202 -17.75,-1.37244 -0.95937,-0.7962 -1.68668,-0.79382 -2.65365,0.009 -0.87965,0.73005 -10.30448,1.19618 -27.75,1.37245 L 519.5,689.5 v 16 16 l 25.41865,0.26753 c 16.70557,0.17582 25.87502,0.64627 26.75,1.37244 1.76989,1.46888 1.83761,14.41434 0.0814,15.55101 C 571.0625,739.13594 559.025,739.725 545,740 l -25.5,0.5 v 16 16 l 27,0.5 27,0.5 v 8 8 H 538 502.5 l -0.25799,-58.75 -0.258,-58.75 h 35.308 c 24.09192,0 35.65333,0.34534 36.39512,1.08713 0.78285,0.78285 1.2752,0.78285 1.75902,0 C 575.91349,672.33095 589.50716,672 620.09946,672 h 43.98142 l -0.29044,8.25 -0.29044,8.25 -17,0.5 -17,0.5 -0.25236,49.5 c -0.28713,56.32257 0.48159,52 -9.24764,52 -3.08976,0 -6.37769,-0.5625 -7.30651,-1.25 z m 60.01155,-0.37829 C 672.31727,788.98393 672,762.39847 672,730.29289 v -58.37377 l 8.25,0.29044 8.25,0.29044 0.26858,23.95246 c 0.1977,17.63183 0.59352,24.15888 1.5,24.73469 0.67728,0.43022 11.41382,0.78912 23.85898,0.79754 17.62059,0.0119 22.87175,-0.27893 23.73115,-1.31444 0.71744,-0.86447 1.19766,-9.52453 1.37244,-24.75 L 739.5,672.5 h 8 8 v 58.5 58.5 h -8 -8 l -0.5,-25 -0.5,-25 H 714 689.5 l -0.5,25 -0.5,25 -7.54496,0.28837 c -4.14973,0.15861 -7.86223,-0.0289 -8.25,-0.41666 z m 146.6119,-1.61077 c -1.12874,-1.24352 -2.79611,-3.43366 -3.70528,-4.86698 l -1.65303,-2.60604 33.11865,-45.16748 c 20.68426,-28.20935 32.90593,-45.72182 32.55207,-46.64396 C 879.14711,687.21979 874.5857,687 848.98758,687 h -30.0752 l 0.29381,-7.25 0.29381,-7.25 h 39.96818 39.96819 l 2.26536,4 c 1.24595,2.2 2.27277,4.76351 2.28182,5.69669 0.009,0.93317 -14.62328,21.82094 -32.51629,46.41726 -17.89301,24.59631 -32.16455,45.08876 -31.71455,45.53876 0.45001,0.45001 14.97724,0.93724 32.28274,1.08274 L 903.5,775.5 v 7 7 l -41.06541,0.26094 -41.0654,0.26094 z m 92.36011,1.58277 C 911.30467,788.97134 911,762.41098 911,730.3207 v -58.34596 l 35.75,0.26263 35.75,0.26263 v 8 8 l -27,0.5 -27,0.5 v 16 16 l 25.41865,0.26753 c 16.70557,0.17582 25.87502,0.64627 26.75,1.37244 1.76989,1.46888 1.83761,14.41434 0.0814,15.55101 C 980.0625,739.13594 968.025,739.725 954,740 l -25.5,0.5 v 16 16 l 27,0.5 27,0.5 0.32214,2.80929 c 0.17718,1.5451 0.80432,2.64856 1.39365,2.45211 0.58933,-0.19644 10.40439,-23.93741 21.81121,-52.75772 11.4069,-28.8203 21.246,-53.21125 21.8649,-54.20211 0.8568,-1.37203 2.4052,-1.80157 6.4941,-1.80157 3.0872,0 5.8006,0.53127 6.3843,1.25 1.5203,1.87186 46.2297,115.14025 46.2297,117.11988 0,1.50158 -1.0482,1.67307 -8.674,1.41905 l -8.6741,-0.28893 -6.5759,-16.03933 c -3.6168,-8.82163 -6.9401,-16.58413 -7.385,-17.25 -1.1707,-1.7519 -41.2386,-1.72345 -42.382,0.0301 -0.4449,0.68242 -3.7728,8.44492 -7.3952,17.25 l -6.58622,16.00924 -43.48674,0.26038 c -23.91771,0.14321 -43.79142,-0.0443 -44.16379,-0.41667 z M 1048,737.43451 c 0,-1.66763 -10.5768,-32.66279 -12.2137,-35.79187 -0.5344,-1.02155 -1.3341,-1.47155 -1.7771,-1 -1.1245,1.19684 -13.0092,34.7621 -13.0092,36.74113 0,1.40849 1.7352,1.61623 13.5,1.61623 11.5843,0 13.5,-0.22214 13.5,-1.56549 z M 769.66667,754.33333 C 768.46091,753.12757 768.92509,736.47491 770.2,735.2 c 0.85373,-0.85373 7,-1.2 21.3,-1.2 14.3,0 20.44627,0.34627 21.3,1.2 1.25091,1.25091 1.70857,15.3111 0.59301,18.21821 C 812.8659,754.79185 809.99284,755 791.55968,755 c -11.67449,0 -21.52635,-0.3 -21.89301,-0.66667 z"
             id="path3817"
             inkscape:connector-curvature="0" />
        </g>
      </g>
    </g>
  </g>
</svg>
